<svg xmlns="http://www.w3.org/2000/svg" xmlns:xlink="http://www.w3.org/1999/xlink" width="500" zoomAndPan="magnify" viewBox="0 0 375 374.999991" height="500" preserveAspectRatio="xMidYMid meet" version="1.0"><defs><g/></defs><g fill="#000000" fill-opacity="1"><g transform="translate(149.124693, 182.528191)"><g><path d="M 60.09375 -54.140625 C 60.394531 -54.140625 60.644531 -54.035156 60.84375 -53.828125 C 61.050781 -53.628906 61.15625 -53.378906 61.15625 -53.078125 C 61.15625 -52.773438 61.050781 -52.519531 60.84375 -52.3125 C 60.644531 -52.113281 60.394531 -52.015625 60.09375 -52.015625 C 57.207031 -51.972656 53.910156 -51.738281 50.203125 -51.3125 C 46.503906 -50.882812 42.679688 -50.320312 38.734375 -49.625 C 34.796875 -48.9375 30.992188 -48.125 27.328125 -47.1875 C 26.765625 -44.832031 26.117188 -42.242188 25.390625 -39.421875 C 24.660156 -36.597656 23.882812 -33.648438 23.0625 -30.578125 C 22.5 -28.335938 21.898438 -26.007812 21.265625 -23.59375 C 20.628906 -21.175781 20.007812 -18.753906 19.40625 -16.328125 C 21.988281 -17.003906 24.585938 -17.648438 27.203125 -18.265625 C 29.828125 -18.878906 32.289062 -19.421875 34.59375 -19.890625 C 36.894531 -20.359375 38.875 -20.710938 40.53125 -20.953125 C 42.195312 -21.203125 43.367188 -21.304688 44.046875 -21.265625 C 44.347656 -21.222656 44.59375 -21.097656 44.78125 -20.890625 C 44.96875 -20.691406 45.0625 -20.441406 45.0625 -20.140625 C 45.019531 -19.835938 44.894531 -19.582031 44.6875 -19.375 C 44.476562 -19.175781 44.226562 -19.078125 43.9375 -19.078125 C 43.1875 -19.148438 41.765625 -19.007812 39.671875 -18.65625 C 37.578125 -18.300781 35.070312 -17.8125 32.15625 -17.1875 C 29.238281 -16.570312 26.148438 -15.851562 22.890625 -15.03125 C 21.472656 -14.65625 20.109375 -14.300781 18.796875 -13.96875 C 17.828125 -10.007812 16.929688 -6.164062 16.109375 -2.4375 C 15.285156 1.28125 14.609375 4.71875 14.078125 7.875 C 13.554688 11.039062 13.273438 13.707031 13.234375 15.875 C 13.234375 16.769531 13.316406 17.675781 13.484375 18.59375 C 13.660156 19.507812 14.046875 20.101562 14.640625 20.375 C 15.347656 20.664062 16.289062 20.550781 17.46875 20.03125 C 18.65625 19.507812 19.976562 18.703125 21.4375 17.609375 C 22.894531 16.523438 24.390625 15.3125 25.921875 13.96875 C 27.453125 12.625 28.9375 11.257812 30.375 9.875 C 31.820312 8.488281 33.109375 7.253906 34.234375 6.171875 C 34.523438 5.867188 34.820312 5.578125 35.125 5.296875 C 35.425781 5.015625 35.707031 4.726562 35.96875 4.4375 L 36.921875 3.53125 C 37.484375 3.007812 38.023438 2.492188 38.546875 1.984375 C 39.066406 1.484375 39.535156 1.046875 39.953125 0.671875 C 40.515625 0.148438 41.035156 -0.265625 41.515625 -0.578125 C 42.003906 -0.898438 42.457031 -0.859375 42.875 -0.453125 C 43.351562 -0.0351562 43.40625 0.503906 43.03125 1.171875 C 42.65625 1.847656 41.925781 2.914062 40.84375 4.375 C 40.65625 4.632812 40.410156 4.78125 40.109375 4.8125 C 39.816406 4.851562 39.554688 4.78125 39.328125 4.59375 C 39.253906 4.5625 39.179688 4.507812 39.109375 4.4375 C 38.992188 4.539062 38.878906 4.648438 38.765625 4.765625 C 38.660156 4.878906 38.550781 4.992188 38.4375 5.109375 L 37.484375 6 C 37.222656 6.257812 36.941406 6.539062 36.640625 6.84375 C 36.335938 7.144531 36.035156 7.425781 35.734375 7.6875 C 32.929688 10.414062 30.273438 12.910156 27.765625 15.171875 C 25.265625 17.441406 22.957031 19.257812 20.84375 20.625 C 18.726562 21.988281 16.90625 22.671875 15.375 22.671875 C 14.769531 22.671875 14.242188 22.554688 13.796875 22.328125 C 11.929688 21.546875 11.035156 19.394531 11.109375 15.875 C 11.148438 13.664062 11.410156 11.035156 11.890625 7.984375 C 12.378906 4.941406 13.015625 1.609375 13.796875 -2.015625 C 14.585938 -5.648438 15.453125 -9.410156 16.390625 -13.296875 C 12.535156 -12.210938 9.539062 -11.269531 7.40625 -10.46875 C 5.269531 -9.664062 4 -9.078125 3.59375 -8.703125 C 3.40625 -8.515625 3.160156 -8.421875 2.859375 -8.421875 C 2.554688 -8.421875 2.296875 -8.53125 2.078125 -8.75 C 1.890625 -8.9375 1.796875 -9.179688 1.796875 -9.484375 C 1.796875 -9.785156 1.90625 -10.046875 2.125 -10.265625 C 2.582031 -10.710938 3.53125 -11.234375 4.96875 -11.828125 C 6.40625 -12.429688 8.171875 -13.0625 10.265625 -13.71875 C 12.359375 -14.375 14.601562 -15.035156 17 -15.703125 C 17.632812 -18.285156 18.296875 -20.875 18.984375 -23.46875 C 19.679688 -26.070312 20.347656 -28.628906 20.984375 -31.140625 C 21.734375 -33.941406 22.441406 -36.648438 23.109375 -39.265625 C 23.785156 -41.890625 24.40625 -44.328125 24.96875 -46.578125 C 21.675781 -45.671875 18.671875 -44.722656 15.953125 -43.734375 C 13.242188 -42.742188 11.03125 -41.722656 9.3125 -40.671875 C 7.59375 -39.628906 6.582031 -38.582031 6.28125 -37.53125 C 6.207031 -37.382812 6.207031 -37.046875 6.28125 -36.515625 C 6.351562 -35.992188 6.972656 -35.34375 8.140625 -34.5625 C 8.359375 -34.375 8.492188 -34.140625 8.546875 -33.859375 C 8.609375 -33.578125 8.566406 -33.304688 8.421875 -33.046875 C 8.191406 -32.742188 7.890625 -32.59375 7.515625 -32.59375 C 7.296875 -32.59375 7.09375 -32.648438 6.90625 -32.765625 C 5.40625 -33.773438 4.53125 -34.753906 4.28125 -35.703125 C 4.039062 -36.660156 4.015625 -37.476562 4.203125 -38.15625 C 4.578125 -39.351562 5.445312 -40.472656 6.8125 -41.515625 C 8.175781 -42.566406 9.878906 -43.539062 11.921875 -44.4375 C 13.960938 -45.332031 16.160156 -46.160156 18.515625 -46.921875 C 20.867188 -47.691406 23.207031 -48.378906 25.53125 -48.984375 C 25.75 -49.921875 25.9375 -50.722656 26.09375 -51.390625 C 26.125 -51.691406 26.269531 -51.914062 26.53125 -52.0625 C 26.800781 -52.21875 27.066406 -52.273438 27.328125 -52.234375 C 27.628906 -52.160156 27.863281 -52 28.03125 -51.75 C 28.195312 -51.507812 28.242188 -51.242188 28.171875 -50.953125 C 28.097656 -50.578125 28.003906 -50.109375 27.890625 -49.546875 C 31.515625 -50.441406 35.28125 -51.222656 39.1875 -51.890625 C 43.101562 -52.566406 46.863281 -53.101562 50.46875 -53.5 C 54.082031 -53.894531 57.289062 -54.109375 60.09375 -54.140625 Z M 60.09375 -54.140625 "/></g></g></g><g fill="#000000" fill-opacity="1"><g transform="translate(196.70539, 182.528191)"><g><path d="M 11.390625 -14.875 C 11.691406 -14.90625 11.960938 -14.828125 12.203125 -14.640625 C 12.441406 -14.453125 12.582031 -14.210938 12.625 -13.921875 C 12.664062 -13.617188 12.59375 -13.351562 12.40625 -13.125 C 12.21875 -12.90625 11.972656 -12.773438 11.671875 -12.734375 C 10.285156 -12.546875 8.992188 -12.382812 7.796875 -12.25 C 6.597656 -12.125 5.347656 -11.988281 4.046875 -11.84375 C 2.921875 -7.195312 1.832031 -2.53125 0.78125 2.15625 C -0.257812 6.851562 -1.21875 11.3125 -2.09375 15.53125 C -2.976562 19.757812 -3.726562 23.519531 -4.34375 26.8125 C -4.96875 30.113281 -5.410156 32.695312 -5.671875 34.5625 C -5.628906 34.5625 -5.570312 34.5625 -5.5 34.5625 C -5.238281 34.675781 -5.039062 34.875 -4.90625 35.15625 C -4.78125 35.4375 -4.769531 35.707031 -4.875 35.96875 C -5.101562 36.675781 -5.363281 37.316406 -5.65625 37.890625 C -5.957031 38.472656 -6.351562 38.765625 -6.84375 38.765625 C -6.957031 38.765625 -7.070312 38.75 -7.1875 38.71875 C -7.5625 38.601562 -7.8125 38.367188 -7.9375 38.015625 C -8.070312 37.660156 -8.09375 36.945312 -8 35.875 C -7.90625 34.8125 -7.671875 33.175781 -7.296875 30.96875 C -6.617188 26.925781 -5.585938 21.65625 -4.203125 15.15625 C -3.304688 10.738281 -2.34375 6.226562 -1.3125 1.625 C -0.289062 -2.976562 0.742188 -7.410156 1.796875 -11.671875 C 0.523438 -11.554688 -0.96875 -11.425781 -2.6875 -11.28125 C -2.726562 -11.28125 -2.769531 -11.28125 -2.8125 -11.28125 C -3.445312 -11.28125 -3.800781 -11.613281 -3.875 -12.28125 C -3.875 -12.582031 -3.78125 -12.84375 -3.59375 -13.0625 C -3.40625 -13.289062 -3.160156 -13.425781 -2.859375 -13.46875 C -1.847656 -13.539062 -0.921875 -13.601562 -0.078125 -13.65625 C 0.753906 -13.71875 1.546875 -13.785156 2.296875 -13.859375 C 3.273438 -17.742188 4.175781 -21.28125 5 -24.46875 C 5.1875 -25.175781 5.460938 -26.164062 5.828125 -27.4375 C 6.203125 -28.707031 6.640625 -30.070312 7.140625 -31.53125 C 7.648438 -32.988281 8.195312 -34.378906 8.78125 -35.703125 C 9.363281 -37.035156 9.972656 -38.148438 10.609375 -39.046875 C 11.242188 -39.953125 11.878906 -40.457031 12.515625 -40.5625 C 13.148438 -40.675781 13.65625 -40.453125 14.03125 -39.890625 C 14.507812 -39.179688 14.597656 -38.019531 14.296875 -36.40625 C 14.003906 -34.800781 13.414062 -32.914062 12.53125 -30.75 C 11.65625 -28.582031 10.597656 -26.300781 9.359375 -23.90625 C 8.128906 -21.507812 6.785156 -19.171875 5.328125 -16.890625 C 5.296875 -16.847656 5.28125 -16.8125 5.28125 -16.78125 C 5.164062 -16.332031 5.050781 -15.878906 4.9375 -15.421875 C 4.820312 -14.972656 4.707031 -14.523438 4.59375 -14.078125 C 5.71875 -14.191406 6.820312 -14.304688 7.90625 -14.421875 C 8.988281 -14.535156 10.148438 -14.6875 11.390625 -14.875 Z M 12.234375 -37.59375 C 11.710938 -36.8125 11.007812 -35.398438 10.125 -33.359375 C 9.25 -31.316406 8.269531 -28.3125 7.1875 -24.34375 C 8.976562 -27.71875 10.238281 -30.515625 10.96875 -32.734375 C 11.695312 -34.960938 12.117188 -36.582031 12.234375 -37.59375 Z M 12.234375 -37.59375 "/></g></g></g><g fill="#000000" fill-opacity="1"><g transform="translate(209.442205, 182.528191)"><g><path d="M 16.4375 -12.796875 C 16.695312 -12.640625 16.851562 -12.410156 16.90625 -12.109375 C 16.96875 -11.816406 16.925781 -11.539062 16.78125 -11.28125 C 16.0625 -10.15625 15.160156 -8.898438 14.078125 -7.515625 C 12.992188 -6.128906 11.816406 -4.8125 10.546875 -3.5625 C 9.273438 -2.3125 8.007812 -1.273438 6.75 -0.453125 C 5.5 0.367188 4.351562 0.78125 3.3125 0.78125 C 2.863281 0.78125 2.46875 0.707031 2.125 0.5625 C 0.851562 0 0.148438 -1.351562 0.015625 -3.5 C -0.109375 -5.65625 0.332031 -8.695312 1.34375 -12.625 C 1.414062 -12.925781 1.582031 -13.148438 1.84375 -13.296875 C 2.113281 -13.441406 2.378906 -13.476562 2.640625 -13.40625 C 2.941406 -13.332031 3.164062 -13.164062 3.3125 -12.90625 C 3.457031 -12.644531 3.492188 -12.382812 3.421875 -12.125 C 2.828125 -9.726562 2.453125 -7.828125 2.296875 -6.421875 C 2.148438 -5.023438 2.125 -3.96875 2.21875 -3.25 C 2.3125 -2.539062 2.453125 -2.0625 2.640625 -1.8125 C 2.828125 -1.570312 2.9375 -1.453125 2.96875 -1.453125 C 3.457031 -1.234375 4.171875 -1.394531 5.109375 -1.9375 C 6.046875 -2.476562 7.09375 -3.28125 8.25 -4.34375 C 9.40625 -5.414062 10.570312 -6.648438 11.75 -8.046875 C 12.925781 -9.453125 13.984375 -10.921875 14.921875 -12.453125 C 15.109375 -12.710938 15.34375 -12.867188 15.625 -12.921875 C 15.90625 -12.984375 16.175781 -12.941406 16.4375 -12.796875 Z M 3.203125 -17.28125 C 2.453125 -17.320312 2.066406 -17.535156 2.046875 -17.921875 C 2.023438 -18.316406 2.191406 -18.71875 2.546875 -19.125 C 2.910156 -19.539062 3.273438 -19.820312 3.640625 -19.96875 C 4.242188 -20.15625 4.6875 -20.117188 4.96875 -19.859375 C 5.25 -19.597656 5.378906 -19.257812 5.359375 -18.84375 C 5.335938 -18.4375 5.148438 -18.0625 4.796875 -17.71875 C 4.441406 -17.382812 3.910156 -17.238281 3.203125 -17.28125 Z M 3.203125 -17.28125 "/></g></g></g></svg>